<svg id="Layer_1" data-name="Layer 1" xmlns="http://www.w3.org/2000/svg" xmlns:xlink="http://www.w3.org/1999/xlink" viewBox="0 0 979.74 151.25"><defs><linearGradient id="Unbenannter_Verlauf" x1="149.06" y1="47.71" x2="149.36" y2="56.2" gradientTransform="matrix(1 0 0 -1 0 186)" gradientUnits="userSpaceOnUse"><stop offset="0" stop-color="#b57b2c"/><stop offset=".32" stop-color="#d7a429"/><stop offset="1" stop-color="#f6f5ca"/></linearGradient><linearGradient id="Unbenannter_Verlauf_2" x1="49.555" y1="29.346" x2="50.165" y2="46.814" xlink:href="#Unbenannter_Verlauf"/><linearGradient id="Unbenannter_Verlauf_3" x1="130.41" y1="32.852" x2="131.03" y2="50.548" xlink:href="#Unbenannter_Verlauf"/><linearGradient id="Unbenannter_Verlauf_4" x1="90.12" y1="97.66" x2="68.61" y2="97.66" gradientTransform="matrix(1 0 0 -1 -7.63 171.89)" gradientUnits="userSpaceOnUse"><stop offset="0" stop-color="#d7a429"/><stop offset=".09" stop-color="#cf9a2a"/><stop offset=".31" stop-color="#c0892b"/><stop offset=".55" stop-color="#b87e2c"/><stop offset=".82" stop-color="#b57b2c"/></linearGradient><linearGradient id="Unbenannter_Verlauf_5" x1="125.111" y1="61.838" x2="58.991" y2="130.308" gradientTransform="matrix(1 0 0 -1 -7.63 171.89)" gradientUnits="userSpaceOnUse"><stop offset="0" stop-color="#d0a04c"/><stop offset=".22" stop-color="#d7a429"/><stop offset=".73" stop-color="#f6f5ca"/><stop offset=".9" stop-color="#d8a829"/><stop offset="1" stop-color="#b57b2c"/></linearGradient><style>.cls-8{fill:#fff}</style></defs><path fill="#1d2754" d="M15.38 16.29h134.96v134.96H15.38z"/><path stroke="#d7a429" fill="#1d2754" d="M21.15 22.07h123.41v123.41H21.15z"/><g id="burj_al_arab" data-name="burj al arab"><g id="wellen"><path d="M169.74 130.51c-14.23 10.9-28.07-7.69-41.06 7.07 17.56-9 28.1 10.26 41.06-7.07" transform="translate(-7.63 -14.11)" fill="url(#Unbenannter_Verlauf)"/><path d="M92.09 140.65c-28.66 21.95-58.66-14.79-84.46 14.54 36.12-18.54 57.81 21.1 84.46-14.54" transform="translate(-7.63 -14.11)" fill="url(#Unbenannter_Verlauf_2)"/><path d="M173.48 136.94c-29 22.22-59.4-15-85.52 14.72 36.57-18.77 58.53 21.37 85.52-14.72" transform="translate(-7.63 -14.11)" fill="url(#Unbenannter_Verlauf_3)"/></g><path id="links" fill="url(#Unbenannter_Verlauf_4)" d="M64.26 121.02l10.07 4.04 7.16-1.04.97-22.69.03-5.3-.08-4.54-.15-5.14-.21-4.07-.31-4.81-.36-4.07-.47-5.13-.51-4.25-.69-4.48-.67-4.1-.77-4.3-.83-4.07-1.01-4.5-1.09-4.33-1.14-4.55-4.01-10.29-9.21 6.31.26 7.17.16 4.5.15 4.07.16 4.49.15 4.07.16 4.49.14 4.08.16 4.49.15 4.07.16 4.5.15 4.06.16 4.5.14 4.07.17 4.49.15 4.07.15 4.5.71 19.69z"/><path id="rechts" fill="url(#Unbenannter_Verlauf_5)" d="M107.78 119.42l-26.46 4.52 1.14-22.61.03-5.3-.08-4.54-.15-5.14-.21-4.07-.31-4.81-.36-4.07-.47-5.13-.51-4.25-.69-4.48-.67-4.1-.77-4.3-.83-4.07-1.01-4.5-1.09-4.33-1.14-4.55-4.01-10.29 19.23 6.26 4.64 7.08 2.62 4.64 1.91 3.82 2.1 4.74 1.58 4.07 1.55 4.49 1.22 4.08 1.16 4.49.89 4.07.83 4.5.6 4.06.51 4.5.34 4.07.22 4.49.25 4.07-.2 4.5-1.86 18.09z"/><g id="weiß"><path class="cls-8" d="M82.46 101.33l.03-5.3-19.09.8.15 4.5h18.91zM82.41 91.49l-.15-5.14-19.18 1.92.17 4.49 19.16-1.27zM82.05 82.28l-.31-4.81-18.96 2.23.16 4.5 19.11-1.92zM81.38 73.4l-.47-5.13-18.44 2.87.16 4.5 18.75-2.24zM80.4 64.02l-.69-4.48-17.55 3.04.16 4.49 18.08-3.05zM79.04 55.44l-.77-4.3-16.41 2.87.16 4.49 17.02-3.06zM77.44 47.07l-1.01-4.5-14.88 2.88.16 4.49 15.73-2.87zM75.34 38.24l-1.14-4.55-12.96 3.19.16 4.5 13.94-3.14z"/><path class="cls-8" d="M77.82 37.51l-9.2 6.31-1-28.35a140.262 140.262 0 0110.2 22.04z" transform="translate(-7.63 -14.11)"/><path class="cls-8" d="M82.46 101.33h27.18l.2-4.5-27.35-.8-.03 5.3zM82.41 91.49l-.15-5.14 27.11 1.92.22 4.49-27.18-1.27zM82.05 82.28l26.98 1.92-.51-4.5-26.78-2.23.31 4.81zM107.92 75.64l-.83-4.5-26.18-2.87.47 5.13 26.54 2.24zM106.2 67.07l-1.16-4.49-25.33-3.04.69 4.48 25.8 3.05zM103.82 58.5l-1.55-4.49-24-2.87.77 4.3 24.78 3.06zM100.69 49.94l-1.98-4.49-22.28-2.88 1.01 4.5 23.25 2.87zM75.34 38.24l-1.14-4.55 19.86 3.05 2.62 4.64-21.34-3.14z"/><path class="cls-8" d="M97.05 43.77l-19.23-6.26S69 17.14 67.58 15.47c-.22-.26 13.67 6.73 29.47 28.3z" transform="translate(-7.63 -14.11)"/></g><path d="M72.31 134.87L68 14.9l-.82.17C86.23 67 81.29 138.46 81.24 139.18l.32.63 33.91-5.81.08-.3c0-.19 4.59-16.3 1-40.9a116.24 116.24 0 00-13.31-39.91c-8.39-15.05-21-28.39-36.14-38.78l.22 1.13c65.03 44.76 47.58 117.52 47.4 118.29l-33.08 5.25.46.46c0-.72 5-72.4-14.15-124.47l-.87-.63 4.38 121v.28l.26.11 9.83 4.28v-.93" transform="translate(-7.63 -14.11)" fill="#c3892b" id="kontur"/></g><g id="regular_alexander_koenig" data-name="regular alexander koenig"><path class="cls-8" d="M439.25 139.31l-3.87 14.24-2.15 7.07h-4.71l8-25h5.81l8.12 25h-4.93l-2.26-7.07zM453.94 135.65h4.56v21.16h10.26v3.81h-14.82zM486.17 149.55h-9.41v7.33h10.52v3.74h-15.07v-25h14.52v3.75h-10v6.44h9.41zM504.62 160.62l-2.67-5c-1.07-1.93-1.77-3.26-2.52-4.7h-.07c-.59 1.44-1.26 2.77-2.26 4.7l-2.48 5h-5.22l7.4-12.62-7.14-12.34h5.25l2.71 5.16c.81 1.55 1.41 2.78 2 4.18h.11c.67-1.55 1.18-2.66 2-4.18l2.67-5.16h5.22l-7.29 12.19 7.59 12.78zM521.77 139.31l-3.88 14.24-2.15 7.07H511l8-25h5.82l8.11 25H528l-2.26-7.07zM536.41 160.62v-25h5.23l6.44 10.72a76.003 76.003 0 014.27 8.36h.06a102.91 102.91 0 01-.4-10.37v-8.71h4.22v25h-4.74l-6.52-11a85.363 85.363 0 01-4.44-8.59h-.15c.18 3.22.26 6.52.26 10.64v8.92zM561.49 136a50.827 50.827 0 017.26-.52c4.67 0 7.86 1 10.16 2.89a11.509 11.509 0 013.92 9.19c0 4.48-1.52 7.78-3.89 9.93s-6.44 3.41-11.3 3.41a49.663 49.663 0 01-6.15-.34zm4.56 21.19a17.139 17.139 0 002.52.11c5.93 0 9.44-3.26 9.44-9.6 0-5.48-3.14-8.66-8.85-8.66a14.741 14.741 0 00-3.11.26zM600.77 149.55h-9.41v7.33h10.52v3.74h-15.07v-25h14.51v3.75h-10v6.44h9.41zM605.88 136a39.564 39.564 0 016.89-.55c3.59 0 6 .59 7.71 2a6.35 6.35 0 012.15 5 6.56 6.56 0 01-4.56 6.22v.12c1.82.66 2.89 2.4 3.48 4.81a61.89 61.89 0 002 7h-4.67a31.798 31.798 0 01-1.67-5.89c-.74-3.25-1.89-4.3-4.48-4.36h-2.3v10.25h-4.52zm4.52 11h2.7c3.08 0 5-1.63 5-4.11 0-2.71-1.89-4-4.85-4a13.292 13.292 0 00-2.82.22zM634.63 135.65h4.52v11.49h.11c.59-1 1.22-1.85 1.82-2.71l6.56-8.78h5.59l-8.6 10.64 9.15 14.33h-5.33l-7-11.44-2.26 2.67v8.77h-4.52zM677.39 147.88c0 8.37-5.08 13.15-11.93 13.15-7.08 0-11.53-5.41-11.53-12.71 0-7.7 4.86-13.11 11.9-13.11 7.26 0 11.56 5.52 11.56 12.67zm-18.64.34c0 5.11 2.56 9.14 6.93 9.14s6.89-4.11 6.89-9.33c0-4.71-2.34-9.15-6.89-9.15s-6.93 4.18-6.93 9.34zM695.28 149.55h-9.41v7.33h10.52v3.74h-15.08v-25h14.52v3.75h-10v6.44h9.41zM700.35 160.62v-25h5.23l6.42 10.75a74.16 74.16 0 014.26 8.36h.07a99.966 99.966 0 01-.41-10.37v-8.71h4.23v25h-4.75l-6.52-11a85.363 85.363 0 01-4.44-8.59h-.15c.19 3.22.26 6.52.26 10.64v8.92zM730 135.65v25h-4.56v-25zM755.23 159.47a24.45 24.45 0 01-8 1.42c-4.22 0-7.44-1.08-9.81-3.34a12.49 12.49 0 01-3.48-9.19c0-7.92 5.62-13 13.88-13a16.511 16.511 0 016.64 1.19l-1 3.67a12.9 12.9 0 00-5.67-1.07c-5.33 0-9.08 3.15-9.08 9s3.49 9 8.67 9a9.539 9.539 0 003.45-.48v-6.27h-4.41v-3.59h8.82z" transform="translate(-7.63 -14.11)"/></g><path id="linie" fill="none" stroke="#d7a429" d="M188.75 95.71h790.99"/><path class="cls-8" d="M200.29 33.12h33.23v6.68h-25.18v20.51h23.25v6.59h-23.25v27.92h-8.05zM252.92 33.12v61.7h-8.06v-61.7zM266.83 33.94a93 93 0 0115.29-1.28c8.51 0 14.1 1.65 17.85 5a15.76 15.76 0 014.85 11.81c0 8.06-5.12 13.46-11.53 15.65v.28c4.67 1.65 7.51 6 9 12.45 2 8.61 3.48 14.56 4.76 16.93h-8.24c-1-1.82-2.38-7-4-14.74-1.83-8.51-5.21-11.72-12.45-12h-7.51v26.73h-8zm8 28.11H283c8.51 0 13.91-4.67 13.91-11.72 0-8-5.77-11.44-14.19-11.44a34.798 34.798 0 00-7.88.64zM315.07 85.12a27 27 0 0014.19 4c8.15 0 12.91-4.3 12.91-10.53 0-5.67-3.3-9.06-11.63-12.17-10.07-3.67-16.29-9-16.29-17.58 0-9.62 8-16.76 19.95-16.76 6.23 0 10.9 1.47 13.55 3l-2.19 6.5a22.89 22.89 0 00-11.63-2.93c-8.43 0-11.63 5-11.63 9.25 0 5.77 3.76 8.6 12.27 11.9 10.44 4 15.66 9.07 15.66 18.13 0 9.52-7 17.85-21.52 17.85-5.95 0-12.45-1.83-15.75-4zM372.92 39.89h-18.76v-6.77h45.68v6.77H381v54.93h-8.06zM469.13 92.9c-2.83 1.47-8.79 2.93-16.29 2.93-17.4 0-30.4-11-30.4-31.31 0-19.4 13.09-32.41 32.23-32.41 7.6 0 12.54 1.65 14.65 2.75l-2 6.5a28.18 28.18 0 00-12.36-2.56c-14.46 0-24.08 9.24-24.08 25.45 0 15.19 8.7 24.81 23.62 24.81a32.17 32.17 0 0013.1-2.56zM479.1 33.12h8.06v55h26.37v6.68H479.1zM543.23 40.19l-10.86 35.23-6.4 19.4h-8.24l21-61.7h9.53l21.05 61.7h-8.51l-6.59-19.4zM577.41 85.12a27 27 0 0014.19 4c8.15 0 12.91-4.3 12.91-10.53 0-5.67-3.29-9.06-11.63-12.17-10.07-3.67-16.29-9-16.29-17.58 0-9.62 8-16.76 20-16.76 6.22 0 10.89 1.47 13.54 3l-2.19 6.5a22.86 22.86 0 00-11.63-2.93c-8.42 0-11.63 5-11.63 9.25 0 5.77 3.76 8.6 12.27 11.9 10.44 4 15.66 9.07 15.66 18.13 0 9.52-7 17.85-21.52 17.85-5.95 0-12.45-1.83-15.74-4zM622.54 85.12a27 27 0 0014.19 4c8.15 0 12.9-4.3 12.9-10.53 0-5.67-3.29-9.06-11.62-12.17-10.07-3.67-16.29-9-16.29-17.58 0-9.62 8-16.76 19.95-16.76 6.22 0 10.9 1.47 13.55 3l-2.2 6.5a22.82 22.82 0 00-11.63-2.93c-8.42 0-11.62 5-11.62 9.25 0 5.77 3.76 8.6 12.26 11.9 10.44 4 15.66 9.07 15.66 18.13 0 9.52-7 17.85-21.51 17.85-5.95 0-12.45-1.83-15.75-4z" transform="translate(-7.63 -14.11)"/><path d="M726.71 94.82c-1.74-1.74-3.39-3.56-5.77-5.94a25.44 25.44 0 01-18 7c-12 0-18.95-8-18.95-17.3 0-8.42 5-14.19 12.08-18v-.27c-3.2-4-5.13-8.61-5.13-12.91 0-7.6 5.41-15.29 15.66-15.29 7.69 0 13.64 5 13.64 13.1 0 6.49-3.76 11.62-13.55 16.47V62c5.22 6 11.08 12.73 15 17.12 2.83-4.3 4.76-10.25 6-18H735c-1.65 9.71-4.3 17.4-8.88 22.8 3.3 3.57 6.5 7 10.16 11zM717 84.2c-3.65-4-10.52-11.53-17.39-19.5-3.38 2.2-8 6-8 12.64 0 7 5.22 12.45 12.72 12.45A17.14 17.14 0 00717 84.2zm-18.76-37.71c0 4.48 2.1 7.87 4.67 11.17 6.23-3.58 10.25-6.87 10.25-12.18 0-3.75-2.11-8-7.23-8s-7.69 4.25-7.69 9.01z" transform="translate(-7.63 -14.11)" fill="#d7a429"/><path class="cls-8" d="M814.86 67.73c-.46-8.61-1-19.05-1-26.64h-.19c-2.19 7.14-4.67 14.91-7.78 23.43L795 94.46h-6l-10.12-29.39c-2.93-8.79-5.31-16.66-7-24h-.18c-.18 7.69-.64 17.94-1.2 27.27l-1.64 26.46h-7.6l4.31-61.7h10.15L786.21 63c2.56 7.6 4.57 14.37 6.22 20.78h.18c1.66-6.23 3.85-13 6.6-20.78l11-29.85h10.16l3.85 61.7h-7.87zM889.19 63.34c0 21.14-12.91 32.49-28.66 32.49-16.38 0-27.74-12.72-27.74-31.4 0-19.59 12.08-32.41 28.57-32.41 16.93-.02 27.83 12.91 27.83 31.32zm-48 .91c0 13.27 7.14 25.08 19.77 25.08s19.78-11.62 19.78-25.63c0-12.36-6.41-25.18-19.69-25.18s-19.83 12.27-19.83 25.73zM899.52 33.94a93 93 0 0115.29-1.28c8.51 0 14.1 1.65 17.85 5a15.73 15.73 0 014.86 11.81c0 8.06-5.13 13.46-11.54 15.65v.28c4.67 1.65 7.51 6 9 12.45 2 8.61 3.47 14.56 4.76 16.93h-8.25c-1-1.82-2.38-7-4-14.74-1.84-8.51-5.22-11.72-12.45-12h-7.51v26.73h-8zm8 28.11h8.15c8.51 0 13.91-4.67 13.91-11.72 0-8-5.77-11.44-14.19-11.44a34.688 34.688 0 00-7.87.64zM980.63 65.9h-23.89v22.24h26.73v6.68h-34.79v-61.7h33.41v6.68h-25.35v19.5h23.89z" transform="translate(-7.63 -14.11)"/></svg>