<svg id="Layer_1" data-name="Layer 1" xmlns="http://www.w3.org/2000/svg" xmlns:xlink="http://www.w3.org/1999/xlink" viewBox="0 0 979.74 151.25"><defs><style>.cls-1,.cls-2{fill:#1d2754;}.cls-10,.cls-2{stroke:#d7a429;}.cls-3{fill:url(#Unbenannter_Verlauf);}.cls-4{fill:url(#Unbenannter_Verlauf_2);}.cls-5{fill:url(#Unbenannter_Verlauf_3);}.cls-6{fill:url(#Unbenannter_Verlauf_4);}.cls-7{fill:url(#Unbenannter_Verlauf_5);}.cls-8{fill:#fff;}.cls-9{fill:#c3892b;}.cls-10{fill:none;}.cls-11{fill:#d7a429;}</style><linearGradient id="Unbenannter_Verlauf" x1="149.06" y1="47.71" x2="149.36" y2="56.2" gradientTransform="matrix(1, 0, 0, -1, 0, 186)" gradientUnits="userSpaceOnUse"><stop offset="0" stop-color="#b57b2c"/><stop offset="0.32" stop-color="#d7a429"/><stop offset="1" stop-color="#f6f5ca"/></linearGradient><linearGradient id="Unbenannter_Verlauf_2" x1="49.555" y1="29.3461" x2="50.165" y2="46.8139" xlink:href="#Unbenannter_Verlauf"/><linearGradient id="Unbenannter_Verlauf_3" x1="130.4099" y1="32.8522" x2="131.0301" y2="50.5478" xlink:href="#Unbenannter_Verlauf"/><linearGradient id="Unbenannter_Verlauf_4" x1="90.12" y1="97.66" x2="68.61" y2="97.66" gradientTransform="matrix(1, 0, 0, -1, -7.63, 171.89)" gradientUnits="userSpaceOnUse"><stop offset="0" stop-color="#d7a429"/><stop offset="0.09" stop-color="#cf9a2a"/><stop offset="0.31" stop-color="#c0892b"/><stop offset="0.55" stop-color="#b87e2c"/><stop offset="0.82" stop-color="#b57b2c"/></linearGradient><linearGradient id="Unbenannter_Verlauf_5" x1="125.1108" y1="61.8378" x2="58.9913" y2="130.3076" gradientTransform="matrix(1, 0, 0, -1, -7.63, 171.89)" gradientUnits="userSpaceOnUse"><stop offset="0" stop-color="#d0a04c"/><stop offset="0.22" stop-color="#d7a429"/><stop offset="0.73" stop-color="#f6f5ca"/><stop offset="0.9" stop-color="#d8a829"/><stop offset="1" stop-color="#b57b2c"/></linearGradient></defs><rect class="cls-1" x="15.38" y="16.29" width="134.96" height="134.96"/><rect class="cls-2" x="21.15" y="22.07" width="123.41" height="123.41"/><g id="burj_al_arab" data-name="burj al arab"><g id="wellen"><path class="cls-3" d="M169.74,130.51c-14.23,10.9-28.07-7.69-41.06,7.07,17.56-9,28.1,10.26,41.06-7.07" transform="translate(-7.63 -14.11)"/><path class="cls-4" d="M92.09,140.65C63.43,162.6,33.43,125.86,7.63,155.19c36.12-18.54,57.81,21.1,84.46-14.54" transform="translate(-7.63 -14.11)"/><path class="cls-5" d="M173.48,136.94c-29,22.22-59.4-15-85.52,14.72,36.57-18.77,58.53,21.37,85.52-14.72" transform="translate(-7.63 -14.11)"/></g><polygon id="links" class="cls-6" points="64.26 121.02 74.33 125.06 81.49 124.02 82.46 101.33 82.49 96.03 82.41 91.49 82.26 86.35 82.05 82.28 81.74 77.47 81.38 73.4 80.91 68.27 80.4 64.02 79.71 59.54 79.04 55.44 78.27 51.14 77.44 47.07 76.43 42.57 75.34 38.24 74.2 33.69 70.19 23.4 60.98 29.71 61.24 36.88 61.4 41.38 61.55 45.45 61.71 49.94 61.86 54.01 62.02 58.5 62.16 62.58 62.32 67.07 62.47 71.14 62.63 75.64 62.78 79.7 62.94 84.2 63.08 88.27 63.25 92.76 63.4 96.83 63.55 101.33 64.26 121.02"/><polygon id="rechts" class="cls-7" points="107.78 119.42 81.32 123.94 82.46 101.33 82.49 96.03 82.41 91.49 82.26 86.35 82.05 82.28 81.74 77.47 81.38 73.4 80.91 68.27 80.4 64.02 79.71 59.54 79.04 55.44 78.27 51.14 77.44 47.07 76.43 42.57 75.34 38.24 74.2 33.69 70.19 23.4 89.42 29.66 94.06 36.74 96.68 41.38 98.59 45.2 100.69 49.94 102.27 54.01 103.82 58.5 105.04 62.58 106.2 67.07 107.09 71.14 107.92 75.64 108.52 79.7 109.03 84.2 109.37 88.27 109.59 92.76 109.84 96.83 109.64 101.33 107.78 119.42"/><g id="weiß"><polygon class="cls-8" points="82.46 101.33 82.49 96.03 63.4 96.83 63.55 101.33 82.46 101.33"/><polygon class="cls-8" points="82.41 91.49 82.26 86.35 63.08 88.27 63.25 92.76 82.41 91.49"/><polygon class="cls-8" points="82.05 82.28 81.74 77.47 62.78 79.7 62.94 84.2 82.05 82.28"/><polygon class="cls-8" points="81.38 73.4 80.91 68.27 62.47 71.14 62.63 75.64 81.38 73.4"/><polygon class="cls-8" points="80.4 64.02 79.71 59.54 62.16 62.58 62.32 67.07 80.4 64.02"/><polygon class="cls-8" points="79.04 55.44 78.27 51.14 61.86 54.01 62.02 58.5 79.04 55.44"/><polygon class="cls-8" points="77.44 47.07 76.43 42.57 61.55 45.45 61.71 49.94 77.44 47.07"/><polygon class="cls-8" points="75.34 38.24 74.2 33.69 61.24 36.88 61.4 41.38 75.34 38.24"/><path class="cls-8" d="M77.82,37.51l-9.2,6.31-1-28.35A140.2616,140.2616,0,0,1,77.82,37.51Z" transform="translate(-7.63 -14.11)"/><polygon class="cls-8" points="82.46 101.33 109.64 101.33 109.84 96.83 82.49 96.03 82.46 101.33"/><polygon class="cls-8" points="82.41 91.49 82.26 86.35 109.37 88.27 109.59 92.76 82.41 91.49"/><polygon class="cls-8" points="82.05 82.28 109.03 84.2 108.52 79.7 81.74 77.47 82.05 82.28"/><polygon class="cls-8" points="107.92 75.64 107.09 71.14 80.91 68.27 81.38 73.4 107.92 75.64"/><polygon class="cls-8" points="106.2 67.07 105.04 62.58 79.71 59.54 80.4 64.02 106.2 67.07"/><polygon class="cls-8" points="103.82 58.5 102.27 54.01 78.27 51.14 79.04 55.44 103.82 58.5"/><polygon class="cls-8" points="100.69 49.94 98.71 45.45 76.43 42.57 77.44 47.07 100.69 49.94"/><polygon class="cls-8" points="75.34 38.24 74.2 33.69 94.06 36.74 96.68 41.38 75.34 38.24"/><path class="cls-8" d="M97.05,43.77,77.82,37.51S69,17.14,67.58,15.47C67.36,15.21,81.25,22.2,97.05,43.77Z" transform="translate(-7.63 -14.11)"/></g><g id="kontur"><path class="cls-9" d="M72.31,134.87,68,14.9l-.82.17C86.23,67,81.29,138.46,81.24,139.18l.32.63h0L115.47,134h0l.08-.3c0-.19,4.59-16.3,1-40.9a116.2391,116.2391,0,0,0-13.31-39.91c-8.39-15.05-21-28.39-36.14-38.78l.22,1.13C132.35,60,114.9,132.76,114.72,133.53h0l-33.08,5.25.46.46c0-.72,5-72.4-14.15-124.47l-.87-.63,4.38,121v.28l.26.11,9.83,4.28v-.93" transform="translate(-7.63 -14.11)"/></g></g><g id="regular_alexander_koenig" data-name="regular alexander koenig"><path class="cls-8" d="M439.25,139.31l-3.87,14.24-2.15,7.07h-4.71l8-25h5.81l8.12,25h-4.93l-2.26-7.07Z" transform="translate(-7.63 -14.11)"/><path class="cls-8" d="M453.94,135.65h4.56v21.16h10.26v3.81H453.94Z" transform="translate(-7.63 -14.11)"/><path class="cls-8" d="M486.17,149.55h-9.41v7.33h10.52v3.74H472.21v-25h14.52v3.75h-10v6.44h9.41Z" transform="translate(-7.63 -14.11)"/><path class="cls-8" d="M504.62,160.62l-2.67-5c-1.07-1.93-1.77-3.26-2.52-4.7h-.07c-.59,1.44-1.26,2.77-2.26,4.7l-2.48,5H489.4L496.8,148l-7.14-12.34h5.25l2.71,5.16c.81,1.55,1.41,2.78,2,4.18h.11c.67-1.55,1.18-2.66,2-4.18l2.67-5.16h5.22l-7.29,12.19,7.59,12.78Z" transform="translate(-7.63 -14.11)"/><path class="cls-8" d="M521.77,139.31l-3.88,14.24-2.15,7.07H511l8-25h5.82l8.11,25H528l-2.26-7.07Z" transform="translate(-7.63 -14.11)"/><path class="cls-8" d="M536.41,160.62v-25h5.23l6.44,10.72a76.0034,76.0034,0,0,1,4.27,8.36h.06a102.91,102.91,0,0,1-.4-10.37v-8.71h4.22v25h-4.74l-6.52-11a85.3632,85.3632,0,0,1-4.44-8.59h-.15c.18,3.22.26,6.52.26,10.64v8.92Z" transform="translate(-7.63 -14.11)"/><path class="cls-8" d="M561.49,136a50.8272,50.8272,0,0,1,7.26-.52c4.67,0,7.86,1,10.16,2.89a11.5087,11.5087,0,0,1,3.92,9.19c0,4.48-1.52,7.78-3.89,9.93s-6.44,3.41-11.3,3.41a49.663,49.663,0,0,1-6.15-.34Zm4.56,21.19a17.1387,17.1387,0,0,0,2.52.11c5.93,0,9.44-3.26,9.44-9.6,0-5.48-3.14-8.66-8.85-8.66a14.7411,14.7411,0,0,0-3.11.26Z" transform="translate(-7.63 -14.11)"/><path class="cls-8" d="M600.77,149.55h-9.41v7.33h10.52v3.74H586.81v-25h14.51v3.75h-10v6.44h9.41Z" transform="translate(-7.63 -14.11)"/><path class="cls-8" d="M605.88,136a39.564,39.564,0,0,1,6.89-.55c3.59,0,6,.59,7.71,2a6.35,6.35,0,0,1,2.15,5,6.56,6.56,0,0,1-4.56,6.22v.12c1.82.66,2.89,2.4,3.48,4.81a61.8908,61.8908,0,0,0,2,7h-4.67a31.7976,31.7976,0,0,1-1.67-5.89c-.74-3.25-1.89-4.3-4.48-4.36h-2.3V160.6h-4.52Zm4.52,11h2.7c3.08,0,5-1.63,5-4.11,0-2.71-1.89-4-4.85-4a13.292,13.292,0,0,0-2.82.22Z" transform="translate(-7.63 -14.11)"/><path class="cls-8" d="M634.63,135.65h4.52v11.49h.11c.59-1,1.22-1.85,1.82-2.71l6.56-8.78h5.59l-8.6,10.64,9.15,14.33h-5.33l-7-11.44-2.26,2.67v8.77h-4.52Z" transform="translate(-7.63 -14.11)"/><path class="cls-8" d="M677.39,147.88c0,8.37-5.08,13.15-11.93,13.15-7.08,0-11.53-5.41-11.53-12.71,0-7.7,4.86-13.11,11.9-13.11C673.09,135.21,677.39,140.73,677.39,147.88Zm-18.64.34c0,5.11,2.56,9.14,6.93,9.14s6.89-4.11,6.89-9.33c0-4.71-2.34-9.15-6.89-9.15S658.75,143.06,658.75,148.22Z" transform="translate(-7.63 -14.11)"/><path class="cls-8" d="M695.28,149.55h-9.41v7.33h10.52v3.74H681.31v-25h14.52v3.75h-10v6.44h9.41Z" transform="translate(-7.63 -14.11)"/><path class="cls-8" d="M700.35,160.62v-25h5.23L712,146.37a74.1592,74.1592,0,0,1,4.26,8.36h.07a99.9661,99.9661,0,0,1-.41-10.37v-8.71h4.23v25H715.4l-6.52-11a85.3632,85.3632,0,0,1-4.44-8.59h-.15c.19,3.22.26,6.52.26,10.64v8.92Z" transform="translate(-7.63 -14.11)"/><path class="cls-8" d="M730,135.65v25h-4.56v-25Z" transform="translate(-7.63 -14.11)"/><path class="cls-8" d="M755.23,159.47a24.4492,24.4492,0,0,1-8,1.42c-4.22,0-7.44-1.08-9.81-3.34a12.49,12.49,0,0,1-3.48-9.19c0-7.92,5.62-13,13.88-13a16.5111,16.5111,0,0,1,6.64,1.19l-1,3.67a12.9,12.9,0,0,0-5.67-1.07c-5.33,0-9.08,3.15-9.08,9s3.49,9,8.67,9a9.5388,9.5388,0,0,0,3.45-.48V150.4h-4.41v-3.59h8.82Z" transform="translate(-7.63 -14.11)"/></g><line id="linie" class="cls-10" x1="188.75" y1="95.71" x2="979.74" y2="95.71"/><path class="cls-8" d="M200.29,33.12h33.23V39.8H208.34V60.31h23.25V66.9H208.34V94.82h-8.05Z" transform="translate(-7.63 -14.11)"/><path class="cls-8" d="M252.92,33.12v61.7h-8.06V33.12Z" transform="translate(-7.63 -14.11)"/><path class="cls-8" d="M266.83,33.94a93,93,0,0,1,15.29-1.28c8.51,0,14.1,1.65,17.85,5a15.76,15.76,0,0,1,4.85,11.81c0,8.06-5.12,13.46-11.53,15.65v.28c4.67,1.65,7.51,6,9,12.45,2,8.61,3.48,14.56,4.76,16.93h-8.24c-1-1.82-2.38-7-4-14.74-1.83-8.51-5.21-11.72-12.45-12h-7.51V94.77h-8Zm8,28.11H283c8.51,0,13.91-4.67,13.91-11.72,0-8-5.77-11.44-14.19-11.44a34.7979,34.7979,0,0,0-7.88.64Z" transform="translate(-7.63 -14.11)"/><path class="cls-8" d="M315.07,85.12a27,27,0,0,0,14.19,4c8.15,0,12.91-4.3,12.91-10.53,0-5.67-3.3-9.06-11.63-12.17-10.07-3.67-16.29-9-16.29-17.58,0-9.62,8-16.76,19.95-16.76,6.23,0,10.9,1.47,13.55,3l-2.19,6.5a22.89,22.89,0,0,0-11.63-2.93c-8.43,0-11.63,5-11.63,9.25,0,5.77,3.76,8.6,12.27,11.9,10.44,4,15.66,9.07,15.66,18.13,0,9.52-7,17.85-21.52,17.85-5.95,0-12.45-1.83-15.75-4Z" transform="translate(-7.63 -14.11)"/><path class="cls-8" d="M372.92,39.89H354.16V33.12h45.68v6.77H381V94.82h-8.06Z" transform="translate(-7.63 -14.11)"/><path class="cls-8" d="M469.13,92.9c-2.83,1.47-8.79,2.93-16.29,2.93-17.4,0-30.4-11-30.4-31.31,0-19.4,13.09-32.41,32.23-32.41,7.6,0,12.54,1.65,14.65,2.75l-2,6.5a28.1807,28.1807,0,0,0-12.36-2.56c-14.46,0-24.08,9.24-24.08,25.45,0,15.19,8.7,24.81,23.62,24.81a32.17,32.17,0,0,0,13.1-2.56Z" transform="translate(-7.63 -14.11)"/><path class="cls-8" d="M479.1,33.12h8.06v55h26.37V94.8H479.1Z" transform="translate(-7.63 -14.11)"/><path class="cls-8" d="M543.23,40.19,532.37,75.42l-6.4,19.4h-8.24l21-61.7h9.53l21.05,61.7H560.8l-6.59-19.4Z" transform="translate(-7.63 -14.11)"/><path class="cls-8" d="M577.41,85.12a27,27,0,0,0,14.19,4c8.15,0,12.91-4.3,12.91-10.53,0-5.67-3.29-9.06-11.63-12.17-10.07-3.67-16.29-9-16.29-17.58,0-9.62,8-16.76,20-16.76,6.22,0,10.89,1.47,13.54,3l-2.19,6.5a22.86,22.86,0,0,0-11.63-2.93c-8.42,0-11.63,5-11.63,9.25,0,5.77,3.76,8.6,12.27,11.9,10.44,4,15.66,9.07,15.66,18.13,0,9.52-7,17.85-21.52,17.85-5.95,0-12.45-1.83-15.74-4Z" transform="translate(-7.63 -14.11)"/><path class="cls-8" d="M622.54,85.12a27,27,0,0,0,14.19,4c8.15,0,12.9-4.3,12.9-10.53,0-5.67-3.29-9.06-11.62-12.17-10.07-3.67-16.29-9-16.29-17.58,0-9.62,8-16.76,19.95-16.76,6.22,0,10.9,1.47,13.55,3l-2.2,6.5a22.8208,22.8208,0,0,0-11.63-2.93c-8.42,0-11.62,5-11.62,9.25,0,5.77,3.76,8.6,12.26,11.9,10.44,4,15.66,9.07,15.66,18.13,0,9.52-7,17.85-21.51,17.85-5.95,0-12.45-1.83-15.75-4Z" transform="translate(-7.63 -14.11)"/><path class="cls-11" d="M726.71,94.82c-1.74-1.74-3.39-3.56-5.77-5.94a25.44,25.44,0,0,1-18,7c-12,0-18.95-8-18.95-17.3,0-8.42,5-14.19,12.08-18v-.27c-3.2-4-5.13-8.61-5.13-12.91,0-7.6,5.41-15.29,15.66-15.29,7.69,0,13.64,5,13.64,13.1,0,6.49-3.76,11.62-13.55,16.47V62c5.22,6,11.08,12.73,15,17.12,2.83-4.3,4.76-10.25,6-18H735c-1.65,9.71-4.3,17.4-8.88,22.8,3.3,3.57,6.5,7,10.16,11ZM717,84.2c-3.65-4-10.52-11.53-17.39-19.5-3.38,2.2-8,6-8,12.64,0,7,5.22,12.45,12.72,12.45A17.14,17.14,0,0,0,717,84.2ZM698.24,46.49c0,4.48,2.1,7.87,4.67,11.17,6.23-3.58,10.25-6.87,10.25-12.18,0-3.75-2.11-8-7.23-8S698.24,41.73,698.24,46.49Z" transform="translate(-7.63 -14.11)"/><path class="cls-8" d="M814.86,67.73c-.46-8.61-1-19.05-1-26.64h-.19C811.48,48.23,809,56,805.89,64.52L795,94.46h-6L778.88,65.07c-2.93-8.79-5.31-16.66-7-24h-.18c-.18,7.69-.64,17.94-1.2,27.27L768.86,94.8h-7.6l4.31-61.7h10.15L786.21,63c2.56,7.6,4.57,14.37,6.22,20.78h.18c1.66-6.23,3.85-13,6.6-20.78l11-29.85h10.16l3.85,61.7h-7.87Z" transform="translate(-7.63 -14.11)"/><path class="cls-8" d="M889.19,63.34c0,21.14-12.91,32.49-28.66,32.49-16.38,0-27.74-12.72-27.74-31.4,0-19.59,12.08-32.41,28.57-32.41C878.29,32,889.19,44.93,889.19,63.34Zm-48,.91c0,13.27,7.14,25.08,19.77,25.08s19.78-11.62,19.78-25.63c0-12.36-6.41-25.18-19.69-25.18s-19.83,12.27-19.83,25.73Z" transform="translate(-7.63 -14.11)"/><path class="cls-8" d="M899.52,33.94a93,93,0,0,1,15.29-1.28c8.51,0,14.1,1.65,17.85,5a15.73,15.73,0,0,1,4.86,11.81c0,8.06-5.13,13.46-11.54,15.65v.28c4.67,1.65,7.51,6,9,12.45,2,8.61,3.47,14.56,4.76,16.93h-8.25c-1-1.82-2.38-7-4-14.74-1.84-8.51-5.22-11.72-12.45-12h-7.51V94.77h-8Zm8,28.11h8.15c8.51,0,13.91-4.67,13.91-11.72,0-8-5.77-11.44-14.19-11.44a34.6881,34.6881,0,0,0-7.87.64Z" transform="translate(-7.63 -14.11)"/><path class="cls-8" d="M980.63,65.9H956.74V88.14h26.73v6.68H948.68V33.12h33.41V39.8H956.74V59.3h23.89Z" transform="translate(-7.63 -14.11)"/></svg>
